<?xml version="1.0" encoding="iso-8859-1"?>
<!-- Generator: Adobe Illustrator 19.0.0, SVG Export Plug-In . SVG Version: 6.00 Build 0)  -->
<svg version="1.1" id="Capa_1" xmlns="http://www.w3.org/2000/svg" xmlns:xlink="http://www.w3.org/1999/xlink" x="0px" y="0px"
	 viewBox="0 0 60 60" style="enable-background:new 0 0 60 60;" xml:space="preserve">
<g>
	<path d="M30,26.979c-7.72,0-14,6.28-14,14s6.28,14,14,14s14-6.28,14-14S37.72,26.979,30,26.979z M30,52.979
		c-6.617,0-12-5.383-12-12s5.383-12,12-12s12,5.383,12,12S36.617,52.979,30,52.979z"/>
	<path d="M60,5.979c0-0.553-0.447-1-1-1c-4.364,0-6.112,0.329-7,0.879c-0.888-0.55-2.636-0.879-7-0.879c-0.553,0-1,0.447-1,1
		s0.447,1,1,1c5.037,0,5.869,0.474,5.986,0.587c0.015,0.05,0.015,0.21,0.014,0.327c0,0.002,0,0.085,0,0.086v6.539l-13.085,3.452
		c-0.444,0.116-0.816,0.399-1.047,0.797c-0.231,0.398-0.293,0.861-0.174,1.306l0.946,3.532c-2.102-0.929-4.352-1.469-6.64-1.592
		v-6.034h6c0.553,0,1-0.447,1-1s-0.447-1-1-1H23c-0.553,0-1,0.447-1,1s0.447,1,1,1h6v6.034c-2.289,0.122-4.538,0.663-6.641,1.592
		l0.946-3.532c0.119-0.444,0.058-0.907-0.174-1.306c-0.23-0.397-0.603-0.681-1.046-0.797L9,14.518V7.979
		c0-0.014-0.007-0.025-0.008-0.039C8.993,7.927,9,7.916,9,7.902C9,7.9,9,7.896,9,7.894h0C8.999,7.776,8.999,7.616,8.995,7.599
		C9.131,7.453,9.963,6.979,15,6.979c0.553,0,1-0.447,1-1s-0.447-1-1-1c-4.364,0-6.112,0.329-7,0.879
		c-0.888-0.55-2.636-0.879-7-0.879c-0.553,0-1,0.447-1,1s0.447,1,1,1c5.037,0,5.869,0.474,5.986,0.587
		C7.001,7.616,7.001,7.776,7,7.894c0,0.002,0,0.085,0,0.086v6.011l-1.985-0.524c-0.908-0.238-1.85,0.304-2.095,1.215l-1.7,6.346
		c-0.119,0.443-0.058,0.906,0.172,1.303c0.23,0.397,0.603,0.682,1.048,0.8L7,24.333v27.233l-6.707,6.707
		c-0.391,0.391-0.391,1.023,0,1.414C0.488,59.882,0.744,59.979,1,59.979s0.512-0.098,0.707-0.293L7,54.394v4.586
		c0,0.553,0.447,1,1,1s1-0.447,1-1v-4.586l5.293,5.293c0.195,0.195,0.451,0.293,0.707,0.293s0.512-0.098,0.707-0.293
		c0.391-0.391,0.391-1.023,0-1.414L9,51.565V24.86l8.154,2.151C13.223,30.605,11,35.593,11,40.979
		c0,6.601,3.388,12.422,8.512,15.828l-0.482,1.929c-0.135,0.535,0.191,1.078,0.728,1.212c0.081,0.021,0.163,0.03,0.243,0.03
		c0.448,0,0.855-0.303,0.969-0.758l0.341-1.365c2.607,1.348,5.557,2.123,8.689,2.123s6.082-0.775,8.689-2.123l0.341,1.365
		c0.113,0.455,0.521,0.758,0.969,0.758c0.08,0,0.162-0.01,0.243-0.03c0.536-0.134,0.862-0.677,0.728-1.212l-0.482-1.929
		C45.612,53.401,49,47.581,49,40.979c0-5.387-2.223-10.375-6.154-13.968L51,24.861v26.705l-6.707,6.707
		c-0.391,0.391-0.391,1.023,0,1.414c0.195,0.195,0.451,0.293,0.707,0.293s0.512-0.098,0.707-0.293L51,54.394v4.586
		c0,0.553,0.447,1,1,1s1-0.447,1-1v-4.586l5.293,5.293c0.195,0.195,0.451,0.293,0.707,0.293s0.512-0.098,0.707-0.293
		c0.391-0.391,0.391-1.023,0-1.414L53,51.565V24.333l4.562-1.203c0.443-0.118,0.815-0.402,1.046-0.8
		c0.229-0.396,0.291-0.859,0.172-1.303l-1.7-6.347c-0.245-0.91-1.185-1.455-2.095-1.214L53,13.991V7.979
		c0-0.014-0.007-0.025-0.008-0.039C52.993,7.927,53,7.916,53,7.902c0-0.003,0-0.006,0-0.009h0c-0.001-0.117-0.001-0.277-0.005-0.295
		C53.131,7.453,53.963,6.979,59,6.979C59.553,6.979,60,6.532,60,5.979z M4.778,15.473L21.3,19.832l-1.35,5.039l0,0l-0.203,0.756
		L3.226,21.269L4.778,15.473z M40.495,27.632C44.636,30.884,47,35.722,47,40.979c0,9.374-7.626,17-17,17s-17-7.626-17-17
		c0-5.258,2.364-10.096,6.505-13.348l0.006,0.001c0.136,0.037,0.272,0.05,0.406,0.053c0.01,0,0.02,0.004,0.029,0.004
		c0.014,0,0.026-0.006,0.04-0.007c0.349-0.008,0.681-0.122,0.958-0.322c0.02-0.014,0.04-0.027,0.06-0.043
		c0.128-0.101,0.242-0.218,0.337-0.353c0.017-0.024,0.031-0.049,0.047-0.074c0.09-0.141,0.166-0.292,0.212-0.461
		c0.001-0.004,0.004-0.008,0.005-0.012l0.064-0.24c5.101-2.88,11.559-2.88,16.66,0l0.065,0.242c0.002,0.009,0.009,0.016,0.011,0.025
		c0.046,0.163,0.119,0.31,0.206,0.446c0.016,0.025,0.03,0.05,0.047,0.074c0.096,0.136,0.211,0.254,0.34,0.355
		c0.018,0.014,0.036,0.026,0.054,0.039c0.277,0.2,0.609,0.315,0.96,0.323c0.014,0,0.028,0.007,0.042,0.007
		c0.01,0,0.02-0.004,0.031-0.004c0.133-0.003,0.266-0.017,0.4-0.052c0.002,0,0.003,0,0.005-0.001l0.001,0L40.495,27.632z
		 M55.222,15.473l1.553,5.796l-16.521,4.358l-0.203-0.756l0,0l-1.35-5.039L55.222,15.473z"/>
	<path d="M45,3.979c4.364,0,6.112-0.329,7-0.879c0.888,0.55,2.636,0.879,7,0.879c0.553,0,1-0.447,1-1s-0.447-1-1-1
		c-5.037,0-5.869-0.474-5.986-0.587c-0.015-0.05-0.015-0.21-0.014-0.327c0-0.002,0-0.085,0-0.086c0-0.552-0.446-0.958-0.998-0.959
		c-0.001,0-0.001,0-0.002,0c-0.551,0-0.998,0.485-1,1.036c0,0.003,0,0.006,0,0.009h0c0.001,0.117,0.001,0.277,0.005,0.295
		C50.869,1.506,50.037,1.979,45,1.979c-0.553,0-1,0.447-1,1S44.447,3.979,45,3.979z"/>
	<path d="M1,3.979c4.364,0,6.112-0.329,7-0.879c0.888,0.55,2.636,0.879,7,0.879c0.553,0,1-0.447,1-1s-0.447-1-1-1
		c-5.037,0-5.869-0.474-5.986-0.587C8.999,1.343,8.999,1.183,9,1.065C9,1.063,9,0.98,9,0.979c0-0.552-0.446-0.958-0.998-0.959
		C7.479,0.059,7.002,0.505,7,1.057c0,0.003,0,0.006,0,0.009h0C7.001,1.183,7.001,1.343,7.005,1.36C6.869,1.506,6.037,1.979,1,1.979
		c-0.553,0-1,0.447-1,1S0.447,3.979,1,3.979z"/>
	<path d="M34.5,39.979c-2.481,0-4.5,2.019-4.5,4.5s2.019,4.5,4.5,4.5s4.5-2.019,4.5-4.5S36.981,39.979,34.5,39.979z M34.5,46.979
		c-1.379,0-2.5-1.121-2.5-2.5s1.121-2.5,2.5-2.5s2.5,1.121,2.5,2.5S35.879,46.979,34.5,46.979z"/>
</g>
<g>
</g>
<g>
</g>
<g>
</g>
<g>
</g>
<g>
</g>
<g>
</g>
<g>
</g>
<g>
</g>
<g>
</g>
<g>
</g>
<g>
</g>
<g>
</g>
<g>
</g>
<g>
</g>
<g>
</g>
</svg>
